<?xml version="1.0" standalone="no"?>
<!DOCTYPE svg PUBLIC "-//W3C//DTD SVG 1.1//EN" "http://www.w3.org/Graphics/SVG/1.1/DTD/svg11.dtd" >
<svg xmlns="http://www.w3.org/2000/svg">
<metadata>Generated by IcoMoon</metadata>
<defs>
<font id="icomoon" horiz-adv-x="1024">
<font-face units-per-em="1024" ascent="960" descent="-64" />
<missing-glyph horiz-adv-x="1024" />
<glyph unicode="&#x20;" horiz-adv-x="512" d="" />
<glyph unicode="&#x2200;" glyph-name="cogs" horiz-adv-x="1280" d="M434-5.143q-56 0-114 14-36 10-36 48v62q-30 14-54 32l-54-30q-34-20-60 8-48 52-70 91t-44 105q-12 38 22 58l54 30q-2 30 0 62l-54 30q-34 20-22 56 22 66 44 105t70 93q26 28 60 8l54-30q24 18 54 30v62q0 38 36 46 66 16 114 16t114-16q38-10 38-46v-62q28-12 54-30l52 30q34 18 60-8 92-100 114-202 6-32-22-50l-54-32q2-32 0-62l54-34q28-18 22-50-20-100-114-200-26-28-60-10l-52 32q-26-18-54-32v-64q0-36-38-46-58-14-114-14zM380 96.857q54-10 110 0v88l32 12q46 16 82 48l26 22 78-44q34 42 54 94l-78 46 8 32q8 48 0 96l-8 34 78 44q-20 52-54 96l-78-44-26 22q-38 32-82 48l-32 10v90q-56 8-110 0v-90l-32-10q-48-18-84-48l-26-22-78 44q-34-44-54-96l78-44-6-34q-10-48 0-96l6-32-78-46q20-52 54-94l78 44 26-22q38-32 84-48l32-12v-88zM433 266.857q-73 0-125 51t-52 125 52 125 125 51 125-52q34-34 46-79t0-91-46-78q-52-52-125-52zM433 522.857q-33 0-57-23t-24-57 24-57 57-23 57 23 24 57-24 57-57 23zM1276 780.857q6-36 2-72-4-20-24-20h-32q-12-30-32-54l16-28q10-18-6-30-28-24-62-38-20-6-30 12l-16 28q-30-6-62 0l-16-28q-10-18-28-12-34 14-64 38-14 12-4 30l16 28q-22 24-32 54h-32q-20 0-24 20-6 36 0 72 4 20 24 20h32q10 30 32 54l-16 28q-12 18 4 30 30 24 64 36 18 8 28-10l16-28q32 6 62 0l16 28q10 18 30 10 34-12 62-36 16-12 6-30l-16-28q20-24 30-54h34q20 0 22-20zM1061 680.857q27 0 46 19t19 45-19 45-46 19-45-19-18-45 18-45 45-19zM1276 168.857q8-34 0-72-2-20-22-20h-34q-10-30-30-54l16-28q10-18-6-30-28-24-62-36-20-8-30 10l-16 28q-30-6-62 0l-16-28q-10-18-28-10-36 12-64 36-16 12-6 30l16 28q-20 24-30 54h-32q-20 0-24 20-6 36 0 72 4 20 24 20h32q10 30 30 54l-16 28q-10 18 6 30 28 24 64 38 18 6 28-12l16-28q32 6 62 0l16 28q10 18 30 12 34-14 62-38 16-12 6-30l-16-28q20-24 30-54h34q20 0 22-20zM1061 68.857q27 0 46 19t19 45-19 45-46 19-45-19-18-45 18-45 45-19z" />
<glyph unicode="&#x2201;" glyph-name="recycle" d="M430 808.857l-60-98q-12-20-32-8l-42 24q-20 14-8 34l60 98q56 92 164 92t164-92l88-146 70 42q18 10 35-2t13-34l-44-174q-4-14-15-21t-23-3l-176 44q-22 4-25 26t15 32l68 40-88 146q-28 46-82 46t-82-46zM110 280.857q-30-48-2-97t84-49h136q24 0 24-24v-48q0-24-24-24h-136q-72 0-126 47t-63 112 25 133l98 162-68 42q-18 12-15 33t23 25l176 44q14 4 25-3t15-19l42-176q6-20-11-33t-35-3l-68 42zM996 330.857q34-68 25-133t-63-112-126-47h-192v-80q0-22-20-30t-34 8l-128 128q-24 22 0 44l128 128q14 16 34 8t20-30v-80h192q56 0 84 49t-2 97l-70 116q-12 20 8 32l42 26q20 12 32-8z" />
<glyph unicode="&#x2202;" glyph-name="hand-lizard" horiz-adv-x="1152" d="M1114 368.857q38-58 38-130v-248h-448v144l-200 76q-8 4-16 4h-264q-46 0-79 33t-33 79q0 72 52 124t124 52h228l36 96h-392q-66 0-113 47t-47 113v16q0 46 33 79t79 33h588q78 0 120-66zM1056 86.857v152q0 44-24 78l-292 452q-14 22-40 22h-588q-16 0-16-16v-16q0-26 19-45t45-19h426q38 0 60-31t8-67l-48-128q-8-18-22-32t-32-22-36-8h-228q-34 0-57-23t-23-57q0-16 16-16h264q26 0 52-10l198-78q28-10 45-34t17-54v-48h256z" />
<glyph unicode="&#x2203;" glyph-name="utensils-alt" horiz-adv-x="1152" d="M0 802.857q0 46 26 83t63 53 81 10 78-38l296-274q6 92 78 162 40 42 170 132 52 34 108 10t76-80q64-22 84-86 58-20 82-76t-10-106q-90-130-132-172-62-62-142-74l118-112q46-42 47-105t-43-107l-52-52q-44-46-107-44t-105 46q-2 4-138 162l-140-158q-42-48-106-50t-108 44l-54 52q-46 44-44 108t50 106l136 120q-158 34-235 151t-77 295zM696 494.857q54-52 118-56t118 48q12 12 28 32t32 41 30 41 24 34l8 12q4 6-2 18t-18 18-18 2l-156-156q-10-10-28 8t-8 30l146 164q4 6 1 14t-10 14-15 10-14 0l-164-146q-8-6-20 0t-18 18 0 18l156 156q4 6-2 18t-18 19-18 1q-122-84-158-122-54-56-50-120t56-116zM420 322.857l-178-156q-18-16-18-38t16-38l52-52q16-16 38-16t38 18l148 168zM96 802.857q0-364 352-364l338-400q16-16 38-16t36 16l52 52q16 14 16 37t-16 37l-728 676q-26 24-57 10t-31-48z" />
<glyph unicode="&#x2204;" glyph-name="expand-arrows" horiz-adv-x="896" d="M896 286.857v-272q0-24-24-24h-272q-10 0-17 7t-7 17v56q0 10 7 17t17 7l124-4 2 2-278 278-278-278 2-2 124 4q10 0 17-7t7-17v-56q0-10-7-17t-17-7h-272q-24 0-24 24v272q0 10 7 17t17 7h56q10 0 17-7t7-17l-4-124 2-2 278 278-278 278-2-2 4-124q0-10-7-17t-17-7h-56q-10 0-17 7t-7 17v272q0 24 24 24h272q10 0 17-7t7-17v-56q0-10-7-17t-17-7l-124 4-2-2 278-278 278 278-2 2-124-4q-6 0-12 3t-9 9-3 12v56q0 10 7 17t17 7h272q24 0 24-24v-272q0-10-7-17t-17-7h-56q-10 0-17 7t-7 17l4 124-2 2-278-278 278-278 2 2-4 124q0 10 7 17t17 7h56q10 0 17-7t7-17z" />
<glyph unicode="&#x2205;" glyph-name="window-close" d="M928 886.857q40 0 68-28t28-68v-704q0-40-28-68t-68-28h-832q-40 0-68 28t-28 68v704q0 40 28 68t68 28h832zM928 98.857v680q0 12-12 12h-808q-12 0-12-12v-680q0-12 12-12h808q12 0 12 12zM712 560.857l-122-122 122-122q18-18 0-34l-44-44q-16-18-34 0l-122 122-122-122q-18-18-34 0l-44 44q-18 16 0 34l122 122-122 122q-18 18 0 34l44 44q16 18 34 0l122-122 122 122q18 18 34 0l44-44q18-16 0-34z" />
<glyph unicode="&#x2206;" glyph-name="box-check" d="M984 684.857q130-32 213-136t83-238q0-160-112-272t-272-112h-800q-40 0-68 28t-28 68v528q0 16 4 30l102 304q10 30 35 48t57 18h628q22 0 40-8t32-23 20-35zM560 854.857v-272h64q106 106 256 112l-54 160h-266zM198 854.857l-92-272h358v272h-266zM96 22.857h546q-130 114-130 288 0 92 44 176h-460v-464zM896 22.857q120 0 204 84t84 204-84 204-204 84-204-84-84-204 84-204 204-84zM1026 434.857l36-38q12-12 0-22l-188-188q-12-10-22 0l-110 110q-10 12 0 22l38 38q12 12 22 0l62-62 138 140q12 10 24 0z" />
<glyph unicode="&#x2207;" glyph-name="fill-drip" horiz-adv-x="1152" d="M1024 310.857q128-186 128-256 0-54-37-91t-91-37-91 37-37 91q0 32 32 96t64 112zM1006 516.857q18-18 18-45t-18-45l-444-444q-56-56-136-56t-136 56l-234 234q-56 56-56 136t56 136l202 200-184 184q-24 24 0 46l22 22q22 24 46 0l182-184 176 176q18 18 45 18t45-18zM494 50.857l228 228h-592l228-228q28-28 68-28t68 28zM818 374.857l96 96-370 370-152-150 140-140q14-14 14-34t-14-34-34-14-34 14l-140 140-200-202q-20-18-26-46h720z" />
<glyph unicode="&#x2208;" glyph-name="dragon" horiz-adv-x="1280" d="M962 710.857q-24 2-44 23t-10 57l116-30q-6-24-23-38t-39-12zM1128 436.857q74-36 115-105t37-151q-6-106-89-180t-197-74h-898q-40 0-68 28t-28 68q0 32 21 58t55 34q358 78 642 98-18 26-34 58l-362-50q-40-4-62 29t0 69l-184-34q-42-6-65 28t-1 68l178 252q12 18 31 30t41 15 44-1l336-84v26l-78 30q-44 22-44 70t44 70q2 2 10 4l-26 20q-42 34-23 86t73 52h428q60 0 96-48l136-174q46-60 10-126l-24-50q-34-66-110-66h-56q-34 0-84 32-14 10-24 16h-38q2-6 8-10zM136 392.857l202 38 84 118-140 34q-10 4-16-6zM382 326.857l272 36q-14 58-14 132l-120 30zM994 22.857q50 0 92 22t69 60 29 82q2 52-24 96t-74 68l-188 88q-66 32-66 104v88h162q40-24 50-32 26-16 32-16h56q16 0 24 14l26 50q6 12-2 24l-136 174q-6 10-20 10h-376l112-90-114-46 90-34v-212q0-184 144-286 22-16 15-39t-33-25q-172-6-331-26t-230-33-205-43z" />
<glyph unicode="&#x2209;" glyph-name="duck" horiz-adv-x="1152" d="M832 662.857q0-14-9-23t-23-9-23 9-9 23 9 23 23 9 23-9 9-23zM928 470.857h-32v-56q62-72 64-162 2-108-79-185t-191-77h-182q-24 0-46 2-178 16-307 139t-155 299q-4 28 16 50t48 22h68q8-50 30-96h-60q32-128 134-217t234-101q20-2 38-2h182q74 0 128 56 48 46 46 108-2 56-40 100l-24 28v142l54 28q24 10 43 30t27 51 0 63q-8 34-33 60t-59 34q-16 4-32 4-52 0-90-38t-38-90v-256h-204q-80 0-150 30 30-64 87-106t123-50q28-2 28-32v-32q0-14-10-23t-24-9q-138 16-234 125t-96 251q0 18 12 28t26 10q16 0 28-12 78-84 210-84h108v160q0 92 66 158t158 66q26 0 54-6 60-14 105-60t59-106q0-4 1-7t1-7v-6h132q0-92-66-158t-158-66z" />
<glyph unicode="&#x2210;" glyph-name="hammer" horiz-adv-x="1152" d="M1142 562.857q24-22 0-46l-226-226q-22-22-44 0l-46 46q-22 22 0 46l22 22-58 58q-16-4-32-4-26 0-48 8l-462-494q-42-46-104-46-60 0-102 42-44 44-42 104t46 102l494 462q-8 24-8 48v36l-136 136q94 94 226 94t226-94l90-90q52-52 34-124l58-58 22 24q22 22 46 0zM178 38.857l458 488-36 36-488-458q-16-14-16-33t14-35q14-14 33-14t35 16zM938 448.857l46 46-120 120 14 54q6 18-6 30l-92 90q-66 66-158 66-38 0-76-12l82-82v-78q0-12 10-22l98-98q12-12 30-8l54 14z" />
<glyph unicode="&#x2211;" glyph-name="wine-bottle" d="M1002 804.857q22-22 22-54t-22-54l-86-86q-26-26-64-22l-50-52q22-72 3-146t-73-128l-288-288q-48-48-116-48t-116 48l-164 164q-48 48-48 116t48 116l288 288q54 54 128 73t146-3l52 50q-4 38 22 64l86 86q22 22 54 22t54-22zM620 286.857l-260 260-148-148 260-260zM280 42.857q20-20 48-20t48 20l52 52-260 260-52-52q-20-20-20-48t20-48zM860 690.857l60 60-96 96-60-60 22-20-152-150-30 12q-6 4-13 6t-32 6-47 2-52-14-56-38l260-260q40 40 50 95t-12 105l-12 30 150 152z" />
<glyph unicode="&#x2212;" glyph-name="humidity" horiz-adv-x="768" d="M320 366.857c0-31-25-56-56-56s-56 25-56 56 25 56 56 56 56-25 56-56zM504 246.857c31 0 56-25 56-56s-25-56-56-56-56 25-56 56 25 56 56 56zM447.8 906.657c102.398-317 320.2-400.202 320.2-623.602 0-196.799-171.801-356.2-384-356.2s-384 159.4-384 356.2c0 222.4 218.2 308.202 320.4 623.602 9.6 29.799 36.6 44.199 63.6 44.199 27.6 0 55-15 63.801-44.199zM384 22.857c158.801 0 288 116.801 288 260.4 0 81.199-38.4 135.4-112.199 232-56.201 73.4-123.801 162-175.801 287.2-51.801-124.6-119.4-213.4-175.4-287-74-97.199-112.6-151.799-112.6-232.4 0-143.398 129.199-260.2 288-260.2zM506 415.257c6.801-5.4 8-15.6 2.4-22.4l-199-268c-5.4-6.801-15.4-8-22.4-2.4l-25 20c-6.801 5.4-8 15.4-2.4 22.4l199 268c5.4 6.801 15.4 8 22.4 2.4z" />
<glyph unicode="&#x2213;" glyph-name="tornado" d="M858.2 900.457c-345.798-497.4 573.202-383.6-68-957-11.799-10.6-27.6-16.6-43.398-16.6h-54.801c-23.4 0-38.6 24.6-28.6 45.801 240.6 505.6-636.8 239.798-663.4 945.2-0.6 17.801 14.199 33 32.4 33h800c25.799 0 40.6-29.199 25.799-50.4zM720.8 854.857h-619.202c8.801-63.801 26.6-116 51.201-160h529.398c0 47.4 11 100.4 38.602 160zM229.2 598.857c71.602-65.801 164.201-106.801 259.4-148.6 8.6-3.801 17-7.6 25.6-11.4h294.602c-41.602 41.4-86.602 93.4-110.201 160h-469.4zM798.4 83.658c110 111.398 129 172.6 129.4 201.2 0.398 19.4-8.602 37.801-24.602 58.199h-214.6c42.4-33 76.6-72.398 96.201-125 15.398-41.199 20-85.799 13.6-134.398z" />
<glyph unicode="&#x2214;" glyph-name="flask-potion" horiz-adv-x="832" d="M608 612.857q102-56 164-157t60-219q-4-154-106-268-38-42-96-42h-428q-58 0-94 40-108 120-108 280 0 118 61 216t163 152v240h-32q-14 0-23 9t-9 23v32q0 14 9 23t23 9h448q14 0 23-9t9-23v-32q0-14-9-23t-23-9h-32v-242zM320 556.857l-20-10t-32-17-34-22-39-32-36-39-32-52-21-64l20 10q90 44 194 44t194-44q74-36 154-36h64q-6 32-18 62t-25 52-32 43-34 34-36 27-31 19-27 14l-17 9v300h-192v-298zM654 32.857q62 70 78 166h-64q-104 0-196 44-70 36-152 36t-152-36l-68-32q12-104 78-178 10-10 24-10h428q14 0 24 10z" />
<glyph unicode="&#x2215;" glyph-name="gamepad-alt" horiz-adv-x="1280" d="M800 502.857q26 0 45-19t19-45-19-45-45-19-45 19-19 45 19 45 45 19zM1278 274.857q10-74-19-140t-89-105-132-39-130 37-88 99l-28 56h-304l-28-56q-30-62-88-99t-130-37q-110 0-183 86t-57 198l56 362q12 76 64 133t126 73q194 44 390 44 200 0 394-44 74-16 126-73t64-133zM1148 136.857q36 44 36 100 0 12-2 22l-54 364q-8 48-40 82t-78 44q-182 42-368 42-190 0-372-42-46-10-78-44t-40-82l-54-364q-2-10-2-22 0-56 36-100 44-50 110-50 42 0 77 22t55 60l28 56 26 54h424l26-54 28-56q12-24 32-43t46-29 54-10q66 0 110 50zM992 630.857q26 0 45-19t19-45-19-45-45-19-45 19-19 45 19 45 45 19zM528 550.857q16 0 16-16v-64q0-16-16-16h-96v-96q0-16-16-16h-64q-16 0-16 16v96h-96q-16 0-16 16v64q0 16 16 16h96v96q0 16 16 16h64q16 0 16-16v-96h96z" />
<glyph unicode="&#x2216;" glyph-name="bahai" d="M992.5 545.817c35.080-4.922 43.359-52.541 12.061-69.342l-196.32-105.318 148.959-167.080c21.84-24.48 3.461-61.861-26.559-61.861-2.641 0-5.361 0.301-8.141 0.9l-217.14 47.301 8.221-225.1c0.859-23.301-17.721-38.441-36.82-38.441-10.32 0-20.779 4.42-28.4 14.361l-136.359 177.799-136.359-177.799c-7.621-9.941-18.080-14.361-28.4-14.361-19.080 0-37.68 15.141-36.82 38.441l8.221 225.1-217.14-47.301c-2.801-0.619-5.5-0.9-8.141-0.9-30 0-48.398 37.361-26.559 61.861l148.979 167.059-196.318 105.32c-31.281 16.801-23 64.42 12.059 69.34l220 30.881-83.639 208.68c-10.521 26.24 9.959 51.1 33.779 51.1 6.379 0 13.020-1.799 19.379-5.84l188.080-119.779 68.182 214.378c5.42 17.102 20.059 25.641 34.699 25.641s29.279-8.539 34.699-25.641l68.201-214.36 188.080 119.779c6.34 4.041 12.98 5.84 19.379 5.84 23.82 0 44.301-24.879 33.781-51.1l-83.641-208.68zM738.040 306.757l-81.619 91.539 144.44 77.48-161.859 22.721 61.539 153.539-138.379-88.119-50.16 157.74-12.801-40.281-37.359-117.459-138.379 88.119 15.719-39.199 45.82-114.34-161.859-22.721 144.44-77.481-109.6-122.92 159.74 34.801-4.5-123.34-1.541-42.281 100.32 130.82 100.32-130.82-1.541 42.281-4.5 123.34 159.74-34.801z" />
<glyph unicode="&#x2217;" glyph-name="fire-alt" d="M647.12 848.457c144.92-134.52 248.88-354.26 248.88-460.798 0-254.5-200.58-460.8-448-460.8s-448 206.3-448 460.8c0 143.279 139.48 380.86 336 563.2 76.561-71.061 144.16-147.24 198.68-222.34 33.281 40.76 70.84 81.34 112.439 119.939zM448 22.857c194.1 0 352 163.66 352 364.8 0 62.359-62.221 207.28-154.92 322.1-12.32-13.641-24.359-27.641-36.020-41.939l-78.82-96.58-73.24 100.879c-35.039 48.279-76 97-120.68 143.721-151.721-161.76-240.32-337.442-240.32-428.18 0-201.14 157.9-364.8 352-364.8zM626.94 464.537c7.26-11.98 13.84-23.699 19.74-34.939 47.84-91.32 27.641-208.202-58.52-268.48-37.92-26.52-84.641-42.26-135.16-42.26-126.26 0-229 83.539-229 219.18 0 67.58 42.539 127.1 127.381 228.82 12.119-13.961 172.959-219.36 172.959-219.36z" />
<glyph unicode="&#x2218;" glyph-name="google-plus3" d="M512 960c-282.8 0-512-229.2-512-512s229.2-512 512-512 512 229.2 512 512-229.2 512-512 512zM384 192c-141.6 0-256 114.4-256 256s114.4 256 256 256c69.2 0 127-25.2 171.6-67l-69.6-66.8c-19 18.2-52.2 39.4-102 39.4-87.4 0-158.8-72.4-158.8-161.6s71.4-161.6 158.8-161.6c101.4 0 139.4 72.8 145.2 110.4h-145.2v87.8h241.8c2.2-12.8 4-25.6 4-42.4 0-146.4-98-250.2-245.8-250.2zM832 448v-64h-64v64h-64v64h64v64h64v-64h64v-64h-64z" />
<glyph unicode="&#x2219;" glyph-name="facebook2" d="M928 960h-832c-52.8 0-96-43.2-96-96v-832c0-52.8 43.2-96 96-96h416v448h-128v128h128v64c0 105.8 86.2 192 192 192h128v-128h-128c-35.2 0-64-28.8-64-64v-64h192l-32-128h-160v-448h288c52.8 0 96 43.2 96 96v832c0 52.8-43.2 96-96 96z" />
<glyph unicode="&#x2220;" glyph-name="instagram" d="M512 867.8c136.8 0 153-0.6 206.8-3 50-2.2 77-10.6 95-17.6 23.8-9.2 41-20.4 58.8-38.2 18-18 29-35 38.4-58.8 7-18 15.4-45.2 17.6-95 2.4-54 3-70.2 3-206.8s-0.6-153-3-206.8c-2.2-50-10.6-77-17.6-95-9.2-23.8-20.4-41-38.2-58.8-18-18-35-29-58.8-38.4-18-7-45.2-15.4-95-17.6-54-2.4-70.2-3-206.8-3s-153 0.6-206.8 3c-50 2.2-77 10.6-95 17.6-23.8 9.2-41 20.4-58.8 38.2-18 18-29 35-38.4 58.8-7 18-15.4 45.2-17.6 95-2.4 54-3 70.2-3 206.8s0.6 153 3 206.8c2.2 50 10.6 77 17.6 95 9.2 23.8 20.4 41 38.2 58.8 18 18 35 29 58.8 38.4 18 7 45.2 15.4 95 17.6 53.8 2.4 70 3 206.8 3zM512 960c-139 0-156.4-0.6-211-3-54.4-2.4-91.8-11.2-124.2-23.8-33.8-13.2-62.4-30.6-90.8-59.2-28.6-28.4-46-57-59.2-90.6-12.6-32.6-21.4-69.8-23.8-124.2-2.4-54.8-3-72.2-3-211.2s0.6-156.4 3-211c2.4-54.4 11.2-91.8 23.8-124.2 13.2-33.8 30.6-62.4 59.2-90.8 28.4-28.4 57-46 90.6-59 32.6-12.6 69.8-21.4 124.2-23.8 54.6-2.4 72-3 211-3s156.4 0.6 211 3c54.4 2.4 91.8 11.2 124.2 23.8 33.6 13 62.2 30.6 90.6 59s46 57 59 90.6c12.6 32.6 21.4 69.8 23.8 124.2 2.4 54.6 3 72 3 211s-0.6 156.4-3 211c-2.4 54.4-11.2 91.8-23.8 124.2-12.6 34-30 62.6-58.6 91-28.4 28.4-57 46-90.6 59-32.6 12.6-69.8 21.4-124.2 23.8-54.8 2.6-72.2 3.2-211.2 3.2v0zM512 711c-145.2 0-263-117.8-263-263s117.8-263 263-263 263 117.8 263 263c0 145.2-117.8 263-263 263zM512 277.4c-94.2 0-170.6 76.4-170.6 170.6s76.4 170.6 170.6 170.6c94.2 0 170.6-76.4 170.6-170.6s-76.4-170.6-170.6-170.6zM846.8 721.4c0-33.91-27.49-61.4-61.4-61.4s-61.4 27.49-61.4 61.4c0 33.91 27.49 61.4 61.4 61.4s61.4-27.49 61.4-61.4z" />
<glyph unicode="&#x2221;" glyph-name="youtube" d="M1013.8 652.8c0 0-10 70.6-40.8 101.6-39 40.8-82.6 41-102.6 43.4-143.2 10.4-358.2 10.4-358.2 10.4h-0.4c0 0-215 0-358.2-10.4-20-2.4-63.6-2.6-102.6-43.4-30.8-31-40.6-101.6-40.6-101.6s-10.2-82.8-10.2-165.8v-77.6c0-82.8 10.2-165.8 10.2-165.8s10-70.6 40.6-101.6c39-40.8 90.2-39.4 113-43.8 82-7.8 348.2-10.2 348.2-10.2s215.2 0.4 358.4 10.6c20 2.4 63.6 2.6 102.6 43.4 30.8 31 40.8 101.6 40.8 101.6s10.2 82.8 10.2 165.8v77.6c-0.2 82.8-10.4 165.8-10.4 165.8zM406.2 315.2v287.8l276.6-144.4-276.6-143.4z" />
<glyph unicode="&#x2222;" glyph-name="tumblr2" d="M928 960h-832c-52.8 0-96-43.2-96-96v-832c0-52.8 43.2-96 96-96h832c52.8 0 96 43.2 96 96v832c0 52.8-43.2 96-96 96zM731.8 135.4c-30.2-14.2-57.6-24.2-82-30-24.4-5.6-51-8.6-79.4-8.6-32.4 0-51.4 4-76.2 12.2s-46 19.8-63.6 34.8c-17.6 15.2-29.6 31.2-36.4 48.2s-10.2 41.6-10.2 74v247.8h-96v100c27.8 9 60 22 79.6 38.8 19.8 16.8 35.8 37 47.6 60.6 12 23.6 20.2 53.6 24.8 90h100.4v-163.2h163.6v-126.2h-163.4v-181.2c0-41-0.6-64.6 3.8-76.2s15.2-23.6 27-30.4c15.6-9.4 33.6-14 53.6-14 35.8 0 71.4 11.6 106.8 34.8v-111.4z" />
<glyph unicode="&#x2223;" glyph-name="reddit" d="M256 320c0 35.346 28.654 64 64 64s64-28.654 64-64c0-35.346-28.654-64-64-64s-64 28.654-64 64zM640 320c0 35.346 28.654 64 64 64s64-28.654 64-64c0-35.346-28.654-64-64-64s-64 28.654-64 64zM643.112 183.222c16.482 12.986 40.376 10.154 53.364-6.332s10.152-40.378-6.334-53.366c-45.896-36.158-115.822-59.524-178.142-59.524-62.322 0-132.248 23.366-178.144 59.522-16.486 12.99-19.32 36.882-6.332 53.368 12.99 16.482 36.882 19.318 53.366 6.332 26.422-20.818 78.722-43.222 131.11-43.222s104.688 22.404 131.112 43.222zM1024 448c0 70.692-57.308 128-128 128-48.116 0-89.992-26.57-111.852-65.82-65.792 35.994-145.952 59.246-233.28 64.608l76.382 171.526 146.194-42.2c13.152-37.342 48.718-64.114 90.556-64.114 53.020 0 96 42.98 96 96s-42.98 96-96 96c-36.56 0-68.342-20.442-84.554-50.514l-162.906 47.024c-18.224 5.258-37.538-3.722-45.252-21.052l-103.77-233.026c-85.138-5.996-163.262-29.022-227.636-64.236-21.864 39.25-63.766 65.804-111.882 65.804-70.692 0-128-57.308-128-128 0-52.312 31.402-97.254 76.372-117.102-8.070-24.028-12.372-49.104-12.372-74.898 0-176.73 200.576-320 448-320 247.422 0 448 143.27 448 320 0 25.792-4.3 50.862-12.368 74.886 44.97 19.85 76.368 64.802 76.368 117.114zM864 772c19.882 0 36-16.118 36-36s-16.118-36-36-36-36 16.118-36 36 16.118 36 36 36zM64 448c0 35.29 28.71 64 64 64 25.508 0 47.572-15.004 57.846-36.646-33.448-25.366-61.166-54.626-81.666-86.738-23.524 9.47-40.18 32.512-40.18 59.384zM512 12c-205.45 0-372 109.242-372 244s166.55 244 372 244c205.45 0 372-109.242 372-244s-166.55-244-372-244zM919.82 388.616c-20.5 32.112-48.218 61.372-81.666 86.738 10.276 21.642 32.338 36.646 57.846 36.646 35.29 0 64-28.71 64-64 0-26.872-16.656-49.914-40.18-59.384z" />
<glyph unicode="&#x2224;" glyph-name="wikipedia" d="M966.8 726.4c0-3.2-1-6.2-3-9-2-2.6-4.2-4-6.8-4-20-2-36.4-8.4-49-19.2-12.8-10.8-25.8-31.8-39.2-62.4l-206.4-465.4c-1.4-4.4-5.2-6.4-11.4-6.4-4.8 0-8.6 2.2-11.4 6.4l-115.8 242-133.2-242c-2.8-4.4-6.4-6.4-11.4-6.4-6 0-9.8 2.2-11.8 6.4l-202.6 465.2c-12.6 28.8-26 49-40 60.4s-33.6 18.6-58.6 21.2c-2.2 0-4.2 1.2-6 3.4-2 2.2-2.8 4.8-2.8 7.8 0 7.6 2.2 11.4 6.4 11.4 18 0 37-0.8 56.8-2.4 18.4-1.6 35.6-2.4 51.8-2.4 16.4 0 36 0.8 58.4 2.4 23.4 1.6 44.2 2.4 62.4 2.4 4.4 0 6.4-3.8 6.4-11.4s-1.4-11.2-4-11.2c-18-1.4-32.4-6-42.8-13.8s-15.6-18-15.6-30.8c0-6.4 2.2-14.6 6.4-24.2l167.4-378.4 95.2 179.6-88.6 185.8c-16 33.2-29 54.6-39.2 64.2s-25.8 15.4-46.6 17.6c-2 0-3.6 1.2-5.4 3.4s-2.6 4.8-2.6 7.8c0 7.6 1.8 11.4 5.6 11.4 18 0 34.6-0.8 49.8-2.4 14.6-1.6 30-2.4 46.6-2.4 16.2 0 33.2 0.8 51.4 2.4 18.6 1.6 37 2.4 55 2.4 4.4 0 6.4-3.8 6.4-11.4s-1.2-11.2-4-11.2c-36.2-2.4-54.2-12.8-54.2-30.8 0-8 4.2-20.6 12.6-37.6l58.6-119 58.4 108.8c8 15.4 12.2 28.4 12.2 38.8 0 24.8-18 38-54.2 39.6-3.2 0-4.8 3.8-4.8 11.2 0 2.8 0.8 5.2 2.4 7.6s3.2 3.6 4.8 3.6c13 0 28.8-0.8 47.8-2.4 18-1.6 33-2.4 44.6-2.4 8.4 0 20.6 0.8 36.8 2 20.4 1.8 37.6 2.8 51.4 2.8 3.2 0 4.8-3.2 4.8-9.6 0-8.6-3-13-8.8-13-21-2.2-38-8-50.8-17.4s-28.8-30.8-48-64.4l-78.2-143.2 105.2-214.4 155.4 361.4c5.4 13.2 8 25.4 8 36.4 0 26.4-18 40.4-54.2 42.2-3.2 0-4.8 3.8-4.8 11.2 0 7.6 2.4 11.4 7.2 11.4 13.2 0 28.8-0.8 47-2.4 16.8-1.6 30.8-2.4 42-2.4 12 0 25.6 0.8 41.2 2.4 16.2 1.6 30.8 2.4 43.8 2.4 4 0 6-3.2 6-9.6z" />
</font>
</defs>
</svg>
